ffmpeg version 3.4.8-0ubuntu0.2 Copyright (c) 2000-2020 the FFmpeg developers
  built with gcc 7 (Ubuntu 7.5.0-3ubuntu1~18.04)
  configuration: --prefix=/usr --extra-version=0ubuntu0.2 --toolchain=hardened --libdir=/usr/lib/x86_64-linux-gnu --incdir=/usr/include/x86_64-linux-gnu --enable-gpl --disable-stripping --enable-avresample --enable-avisynth --enable-gnutls --enable-ladspa --enable-libass --enable-libbluray --enable-libbs2b --enable-libcaca --enable-libcdio --enable-libflite --enable-libfontconfig --enable-libfreetype --enable-libfribidi --enable-libgme --enable-libgsm --enable-libmp3lame --enable-libmysofa --enable-libopenjpeg --enable-libopenmpt --enable-libopus --enable-libpulse --enable-librubberband --enable-librsvg --enable-libshine --enable-libsnappy --enable-libsoxr --enable-libspeex --enable-libssh --enable-libtheora --enable-libtwolame --enable-libvorbis --enable-libvpx --enable-libwavpack --enable-libwebp --enable-libx265 --enable-libxml2 --enable-libxvid --enable-libzmq --enable-libzvbi --enable-omx --enable-openal --enable-opengl --enable-sdl2 --enable-libdc1394 --enable-libdrm --enable-libiec61883 --enable-chromaprint --enable-frei0r --enable-libopencv --enable-libx264 --enable-shared
  libavutil      55. 78.100 / 55. 78.100
  libavcodec     57.107.100 / 57.107.100
  libavformat    57. 83.100 / 57. 83.100
  libavdevice    57. 10.100 / 57. 10.100
  libavfilter     6.107.100 /  6.107.100
  libavresample   3.  7.  0 /  3.  7.  0
  libswscale      4.  8.100 /  4.  8.100
  libswresample   2.  9.100 /  2.  9.100
  libpostproc    54.  7.100 / 54.  7.100
[rawvideo @ 0x5573be09ea20] Estimating duration from bitrate, this may be inaccurate
Input #0, rawvideo, from '../../SVC-Encoder-20220109T061506Z-001/SVC-Encoder/Dataset/RollerCoaster/6f_2x2/tile_yuv/f5_t2_480x480.yuv':
  Duration: 00:00:10.00, start: 0.000000, bitrate: 82944 kb/s
    Stream #0:0: Video: rawvideo (I420 / 0x30323449), yuv420p, 480x480, 82944 kb/s, 30 tbr, 30 tbn, 30 tbc
Stream mapping:
  Stream #0:0 -> #0:0 (rawvideo (native) -> h264 (libx264))
Press [q] to stop, [?] for help
[libx264 @ 0x5573be0abc60] using cpu capabilities: MMX2 SSE2Fast LZCNT SSSE3 SSE4.2 AVX
[libx264 @ 0x5573be0abc60] profile High, level 3.0
Output #0, rawvideo, to 'RollerCoaster_f5_t2_480x480_x264_QP_20.h264':
  Metadata:
    encoder         : Lavf57.83.100
    Stream #0:0: Video: h264 (libx264), yuv420p, 480x480, q=-1--1, 30 fps, 30 tbn, 30 tbc
    Metadata:
      encoder         : Lavc57.107.100 libx264
    Side data:
      cpb: bitrate max/min/avg: 0/0/0 buffer size: 0 vbv_delay: -1
frame=   86 fps=0.0 q=26.0 PSNR=Y:nan U:nan V:nan *:nan size=     236kB time=00:00:01.43 bitrate=1346.2kbits/s speed=2.84x    frame=  134 fps=133 q=26.0 PSNR=Y:nan U:nan V:nan *:nan size=     256kB time=00:00:03.03 bitrate= 691.4kbits/s speed=3.01x    frame=  180 fps=119 q=26.0 PSNR=Y:nan U:nan V:nan *:nan size=     512kB time=00:00:04.56 bitrate= 918.5kbits/s speed=3.02x    frame=  228 fps=113 q=26.0 PSNR=Y:nan U:nan V:nan *:nan size=     768kB time=00:00:06.16 bitrate=1020.2kbits/s speed=3.05x    frame=  283 fps=112 q=26.0 PSNR=Y:nan U:nan V:nan *:nan size=    1024kB time=00:00:08.00 bitrate=1048.6kbits/s speed=3.17x    frame=  300 fps= 95 q=26.0 LPSNR=Y:inf U:inf V:inf *:inf size=    1445kB time=00:00:09.93 bitrate=1191.6kbits/s speed=3.16x    
video:1445kB audio:0kB subtitle:0kB other streams:0kB global headers:0kB muxing overhead: 0.000000%
[libx264 @ 0x5573be0abc60] frame I:2     Avg QP:19.10  size: 42893  PSNR Mean Y:45.10 U:48.62 V:51.04 Avg:46.16 Global:46.10
[libx264 @ 0x5573be0abc60] frame P:76    Avg QP:20.99  size: 13104  PSNR Mean Y:42.98 U:47.85 V:49.92 Avg:44.20 Global:44.13
[libx264 @ 0x5573be0abc60] frame B:222   Avg QP:25.49  size:  1792  PSNR Mean Y:41.70 U:47.35 V:49.69 Avg:43.02 Global:42.99
[libx264 @ 0x5573be0abc60] consecutive B-frames:  1.3%  0.0%  0.0% 98.7%
[libx264 @ 0x5573be0abc60] mb I  I16..4:  6.7% 78.2% 15.1%
[libx264 @ 0x5573be0abc60] mb P  I16..4:  1.0%  4.6%  1.1%  P16..4: 29.4% 32.8% 23.5%  0.0%  0.0%    skip: 7.6%
[libx264 @ 0x5573be0abc60] mb B  I16..4:  0.0%  0.1%  0.0%  B16..8: 38.1% 13.5%  2.3%  direct: 1.6%  skip:44.4%  L0:37.9% L1:45.5% BI:16.5%
[libx264 @ 0x5573be0abc60] 8x8 transform intra:71.0% inter:64.0%
[libx264 @ 0x5573be0abc60] coded y,uvDC,uvAC intra: 81.3% 84.8% 49.7% inter: 24.9% 15.2% 0.4%
[libx264 @ 0x5573be0abc60] i16 v,h,dc,p: 10% 59% 17% 15%
[libx264 @ 0x5573be0abc60] i8 v,h,dc,ddl,ddr,vr,hd,vl,hu:  5% 34% 11%  7%  8% 10%  6%  6% 12%
[libx264 @ 0x5573be0abc60] i4 v,h,dc,ddl,ddr,vr,hd,vl,hu:  8% 35% 12%  5% 10% 13%  5%  4%  8%
[libx264 @ 0x5573be0abc60] i8c dc,h,v,p: 33% 44%  9% 14%
[libx264 @ 0x5573be0abc60] Weighted P-Frames: Y:1.3% UV:1.3%
[libx264 @ 0x5573be0abc60] ref P L0: 60.4% 20.4% 15.3%  3.8%  0.1%
[libx264 @ 0x5573be0abc60] ref B L0: 92.4%  6.9%  0.8%
[libx264 @ 0x5573be0abc60] ref B L1: 94.4%  5.6%
[libx264 @ 0x5573be0abc60] PSNR Mean Y:42.047 U:47.486 V:49.755 Avg:43.336 Global:43.271 kb/s:1183.66
